{"title":"Andrei Rublev 1966 1080p.BluRay.5.1.x264 . NVEE","uid":10509734,"size":3801046875,"categoryP":"video","categoryS":"hd___movies","magnet":"?xt=urn:btih:b95fe197bd41f2ac6a11440eb51da207531640a0&amp;dn=Andrei+Rublev+1966+1080p.BluRay.5.1.x264+.+NVEE&amp;tr=udp%3A%2F%2Ftracker.openbittorrent.com%3A80&amp;tr=udp%3A%2F%2Fopen.demonii.com%3A1337&amp;tr=udp%3A%2F%2Ftracker.coppersurfer.tk%3A6969&amp;tr=udp%3A%2F%2Fexodus.desync.com%3A6969","seeders":14,"leechers":2,"uploader":".NVEE","files":-1,"time":1404831569,"description":"\n\nQuick note :\nPlease seed to a Share Ratio of at least 1.1\nIf you require a torrent release I have posted in the past, not seeding,...\nPlease do not hesitate to inform me in any means you find fit to do so.\nTorrent requests also &quot;Always Welcome.&quot;\n\n\nFULL_INFOs\n\n99.99% --- SYNCED GUARANTEED \n\n&quot;Totally scrutinized / analyzed to be a verified torrent.&quot;\n___________________________________________\n\nSource : Blu-ray ~ 1080p\n\n\n\nSpoken Language : English\n\nAudio : 6 ~ Channels Only\n\n\nSubs Info :\n\nID : 3\nFormat : Timed Text\nCodec ID : tx3g\nDuration : 3h 2mn\nBit rate mode : Variable\nBit rate : 29 bps\nStream size : 39.0 KiB (0%)\nTitle : English\nLanguage : English\nEncoded date : UTC 2014-06-25 17:29:25\nTagged date : UTC 2014-06-25 17:29:25\n\nEnglish .srt &amp; UTF-8 embedded,.\n\nAll .srt UTF-8 &amp; .idx subs can be turned On/Off\n_____________________________________\n---------------------------------------------------------------------------------\n\nGeneral Metadata\n\nComplete name : Andrei Rublev 1966.832p.BluRay.5.1.x264 . NVEE.mp4\nFormat : MPEG-4\nFormat profile : Base Media\nCodec ID : isom\nFile size : 3.54 GiB\nDuration : 3h 3mn\nOverall bit rate mode : Variable\nOverall bit rate : 2 768 Kbps\nEncoded date : UTC 2014-06-25 17:10:30\nTagged date : UTC 2014-06-25 17:10:30\n\n\nVideo\n\nID : 1\nFormat : AVC\nFormat/Info : Advanced Video Codec\nFormat profile : &lt;a class=&quot;__cf_email__&quot; href=&quot;/cdn-cgi/l/email-protection&quot; data-cfemail=&quot;6028090708202c544e51&quot;&gt;[email&amp;#160;protected]&lt;/a&gt;&lt;script cf-hash='f9e31' type=&quot;text/javascript&quot;&gt;\n/* &lt;![CDATA[ */!function(){try{var t=&quot;currentScript&quot;in document?document.currentScript:function(){for(var t=document.getElementsByTagName(&quot;script&quot;),e=t.length;e--;)if(t[e].getAttribute(&quot;cf-hash&quot;))return t[e]}();if(t&amp;&amp;t.previousSibling){var e,r,n,i,c=t.previousSibling,a=c.getAttribute(&quot;data-cfemail&quot;);if(a){for(e=&quot;&quot;,r=parseInt(a.substr(0,2),16),n=2;a.length-n;n+=2)i=parseInt(a.substr(n,2),16)^r,e+=String.fromCharCode(i);e=document.createTextNode(e),c.parentNode.replaceChild(e,c)}}}catch(u){}}();/* ]]&gt; */&lt;/script&gt;\nFormat settings, CABAC : Yes\nFormat settings, ReFrames : 3 frames\nCodec ID : avc1\nCodec ID/Info : Advanced Video Coding\nDuration : 3h 2mn\nBit rate : 2 447 Kbps\nMaximum bit rate : 11.3 Mbps\nWidth : 1 920 pixels\nHeight : 832 pixels\nDisplay aspect ratio : 2.35:1\nFrame rate mode : Constant\nFrame rate : 23.976 fps\nColor space : YUV\nChroma subsampling : 4:2:0\nBit depth : 8 bits\nScan type : Progressive\nBits/(Pixel*Frame) : 0.064\nStream size : 3.13 GiB (88%)\nWriting library : x264 core 142 r2431 ac76440\nEncoded from Physical Blu-ray / Region C\n\n\nAudio\n\nID : 2\nFormat : AC-3\nFormat/Info : Audio Coding 3\nMode extension : CM (complete main)\nFormat settings, Endianness : Big\nCodec ID : ac-3\nDuration : 3h 3mn\nBit rate mode : Constant\nBit rate : 320 Kbps\nChannel(s) : 6 channels\nChannel positions : Front: L C R, Side: L R, LFE\nSampling rate : 48.0 KHz\nBit depth : 16 bits\nCompression mode : Lossy\nStream size : 419 MiB (12%)\nLanguage : Russian\nEncoded date : UTC 2014-06-25 17:28:35\nTagged date : UTC 2014-06-25 17:29:25\nEncoded from Physical Blu-ray 6 Channel audio &quot;Always&quot;.\n\n\nEnj0y !","torrent":{"xt":"urn:btih:b95fe197bd41f2ac6a11440eb51da207531640a0","amp;dn":"Andrei+Rublev+1966+1080p.BluRay.5.1.x264+.+NVEE","amp;tr":["udp%3A%2F%2Ftracker.openbittorrent.com%3A80","udp%3A%2F%2Fopen.demonii.com%3A1337","udp%3A%2F%2Ftracker.coppersurfer.tk%3A6969","udp%3A%2F%2Fexodus.desync.com%3A6969"],"infoHash":"b95fe197bd41f2ac6a11440eb51da207531640a0","infoHashBuffer":{"type":"Buffer","data":[185,95,225,151,189,65,242,172,106,17,68,14,181,29,162,7,83,22,64,160]},"announce":[],"urlList":[]}}